<svg width="1080" height="1080" viewBox="0 0 1080 1080" fill="none" xmlns="http://www.w3.org/2000/svg">
<g clip-path="url(#clip0_1_2)">
<rect width="1080" height="1080" fill="white"/>
<line x1="60.5" y1="2.18557e-08" x2="60.5" y2="1080" stroke="#FFF4E4"/>
<line x1="348.5" y1="2.18557e-08" x2="348.5" y2="1080" stroke="#FFF4E4"/>
<line x1="188.5" y1="2.18557e-08" x2="188.5" y2="1080" stroke="#FFF4E4"/>
<line x1="476.5" y1="2.18557e-08" x2="476.5" y2="1080" stroke="#FFF4E4"/>
<line x1="92.5001" y1="2.18557e-08" x2="92.5" y2="1080" stroke="#FFF4E4"/>
<line x1="380.5" y1="2.18557e-08" x2="380.5" y2="1080" stroke="#FFF4E4"/>
<line x1="220.5" y1="2.18557e-08" x2="220.5" y2="1080" stroke="#FFF4E4"/>
<line x1="508.5" y1="2.18557e-08" x2="508.5" y2="1080" stroke="#FFF4E4"/>
<line x1="124.5" y1="2.18557e-08" x2="124.5" y2="1080" stroke="#FFF4E4"/>
<line x1="412.5" y1="2.18557e-08" x2="412.5" y2="1080" stroke="#FFF4E4"/>
<line x1="252.5" y1="2.18557e-08" x2="252.5" y2="1080" stroke="#FFF4E4"/>
<line x1="540.5" y1="2.18557e-08" x2="540.5" y2="1080" stroke="#FFF4E4"/>
<line x1="284.5" y1="2.18557e-08" x2="284.5" y2="1080" stroke="#FFF4E4"/>
<line x1="572.5" y1="2.18557e-08" x2="572.5" y2="1080" stroke="#FFF4E4"/>
<line x1="28.5001" y1="2.18557e-08" x2="28.5" y2="1080" stroke="#FFF4E4"/>
<line x1="316.5" y1="2.18557e-08" x2="316.5" y2="1080" stroke="#FFF4E4"/>
<line x1="156.5" y1="2.18557e-08" x2="156.5" y2="1080" stroke="#FFF4E4"/>
<line x1="444.5" y1="2.18557e-08" x2="444.5" y2="1080" stroke="#FFF4E4"/>
<line x1="636.5" y1="2.18557e-08" x2="636.5" y2="1080" stroke="#FFF4E4"/>
<line x1="924.5" y1="2.18557e-08" x2="924.5" y2="1080" stroke="#FFF4E4"/>
<line x1="764.5" y1="2.18557e-08" x2="764.5" y2="1080" stroke="#FFF4E4"/>
<line x1="1052.5" y1="2.18557e-08" x2="1052.5" y2="1080" stroke="#FFF4E4"/>
<line x1="668.5" y1="2.18557e-08" x2="668.5" y2="1080" stroke="#FFF4E4"/>
<line x1="956.5" y1="2.18557e-08" x2="956.5" y2="1080" stroke="#FFF4E4"/>
<line x1="796.5" y1="2.18557e-08" x2="796.5" y2="1080" stroke="#FFF4E4"/>
<line x1="700.5" y1="2.18557e-08" x2="700.5" y2="1080" stroke="#FFF4E4"/>
<line x1="988.5" y1="2.18557e-08" x2="988.5" y2="1080" stroke="#FFF4E4"/>
<line x1="828.5" y1="2.18557e-08" x2="828.5" y2="1080" stroke="#FFF4E4"/>
<line x1="860.5" y1="2.18557e-08" x2="860.5" y2="1080" stroke="#FFF4E4"/>
<line x1="604.5" y1="2.18557e-08" x2="604.5" y2="1080" stroke="#FFF4E4"/>
<line x1="892.5" y1="2.18557e-08" x2="892.5" y2="1080" stroke="#FFF4E4"/>
<line x1="732.5" y1="2.18557e-08" x2="732.5" y2="1080" stroke="#FFF4E4"/>
<line x1="1020.5" y1="2.18557e-08" x2="1020.5" y2="1080" stroke="#FFF4E4"/>
<line x1="1080" y1="60.5" x2="-4.37115e-08" y2="60.4999" stroke="#FFF4E4"/>
<line x1="1080" y1="348.5" x2="-4.37115e-08" y2="348.5" stroke="#FFF4E4"/>
<line x1="1080" y1="188.5" x2="-4.37115e-08" y2="188.5" stroke="#FFF4E4"/>
<line x1="1080" y1="476.5" x2="-3.05613e-05" y2="476.5" stroke="#FFF4E4"/>
<line x1="1080" y1="92.5001" x2="-4.37115e-08" y2="92.5" stroke="#FFF4E4"/>
<line x1="1080" y1="380.5" x2="-3.05613e-05" y2="380.5" stroke="#FFF4E4"/>
<line x1="1080" y1="220.5" x2="-4.37115e-08" y2="220.5" stroke="#FFF4E4"/>
<line x1="1080" y1="508.5" x2="-3.05613e-05" y2="508.5" stroke="#FFF4E4"/>
<line x1="1080" y1="124.5" x2="-4.37115e-08" y2="124.5" stroke="#FFF4E4"/>
<line x1="1080" y1="412.5" x2="-3.05613e-05" y2="412.5" stroke="#FFF4E4"/>
<line x1="1080" y1="252.5" x2="-4.37115e-08" y2="252.5" stroke="#FFF4E4"/>
<line x1="1080" y1="540.5" x2="-3.05613e-05" y2="540.5" stroke="#FFF4E4"/>
<line x1="1080" y1="284.5" x2="-4.37115e-08" y2="284.5" stroke="#FFF4E4"/>
<line x1="1080" y1="572.5" x2="-3.05613e-05" y2="572.5" stroke="#FFF4E4"/>
<line x1="1080" y1="28.5001" x2="-4.37115e-08" y2="28.5" stroke="#FFF4E4"/>
<line x1="1080" y1="316.5" x2="-4.37115e-08" y2="316.5" stroke="#FFF4E4"/>
<line x1="1080" y1="156.5" x2="-4.37115e-08" y2="156.5" stroke="#FFF4E4"/>
<line x1="1080" y1="444.5" x2="-3.05613e-05" y2="444.5" stroke="#FFF4E4"/>
<line x1="1080" y1="636.5" x2="-3.05613e-05" y2="636.5" stroke="#FFF4E4"/>
<line x1="1080" y1="924.5" x2="-3.05613e-05" y2="924.5" stroke="#FFF4E4"/>
<line x1="1080" y1="764.5" x2="-3.05613e-05" y2="764.5" stroke="#FFF4E4"/>
<line x1="1080" y1="1052.5" x2="-3.05613e-05" y2="1052.5" stroke="#FFF4E4"/>
<line x1="1080" y1="668.5" x2="-3.05613e-05" y2="668.5" stroke="#FFF4E4"/>
<line x1="1080" y1="956.5" x2="-3.05613e-05" y2="956.5" stroke="#FFF4E4"/>
<line x1="1080" y1="796.5" x2="-3.05613e-05" y2="796.5" stroke="#FFF4E4"/>
<line x1="1080" y1="700.5" x2="-3.05613e-05" y2="700.5" stroke="#FFF4E4"/>
<line x1="1080" y1="988.5" x2="-3.05613e-05" y2="988.5" stroke="#FFF4E4"/>
<line x1="1080" y1="828.5" x2="-3.05613e-05" y2="828.5" stroke="#FFF4E4"/>
<line x1="1080" y1="860.5" x2="-3.05613e-05" y2="860.5" stroke="#FFF4E4"/>
<line x1="1080" y1="604.5" x2="-3.05613e-05" y2="604.5" stroke="#FFF4E4"/>
<line x1="1080" y1="892.5" x2="-3.05613e-05" y2="892.5" stroke="#FFF4E4"/>
<line x1="1080" y1="732.5" x2="-3.05613e-05" y2="732.5" stroke="#FFF4E4"/>
<line x1="1080" y1="1020.5" x2="-3.05613e-05" y2="1020.5" stroke="#FFF4E4"/>
<path d="M119.424 85.8082C111.481 87.6773 111.637 95.5428 114.168 99.242C105.407 100.41 95.0801 108.003 92.557 118.516C89.6303 130.711 98.8765 134.87 105.407 134.87C111.247 134.87 117.672 129.614 120.592 127.278C121.566 132.339 122.345 141.879 132.274 143.632C139.636 144.931 147.849 138.375 149.796 134.87C154.079 138.18 160.309 143.632 167.902 143.632C176.162 143.632 179.195 136.233 180.168 132.534C186.009 134.87 200.669 138.082 204.115 120.853C206.451 109.171 197.69 106.446 193.602 105.083C193.991 102.357 196.522 95.7375 191.849 93.4012C185.581 90.2668 173.548 93.4012 169.655 96.9057C169.265 94.3747 170.463 86.6899 162.646 85.2242C153.301 83.4719 146.292 92.4278 141.619 96.9057C136.947 92.6225 129.354 83.472 119.424 85.8082Z" fill="#EFB2C2"/>
<path d="M150.407 146.549C148.538 134.4 145.151 125.522 142.23 127.274C142.23 128.637 143.398 133.115 143.398 133.115C143.398 133.115 146.903 143.044 150.407 175.752C152.092 191.476 151.576 218.39 155.08 217.222C157.365 216.46 156.248 183.929 156.248 182.177C156.248 180.775 161.31 174.195 163.841 171.08C165.399 171.859 169.448 173.416 173.186 173.416C177.859 173.416 185.452 169.328 185.452 167.575C185.452 165.823 181.363 167.575 177.275 169.328C174.004 170.729 168.124 169.912 165.593 169.328C167.54 167.381 171.784 163.02 173.186 161.151C174.938 158.814 173.186 159.398 169.098 161.151C165.827 162.552 158.195 171.859 155.08 176.921L150.407 146.549Z" fill="#B5DAE2"/>
<path d="M935.877 898.16C934.646 885.93 931.205 872.46 935.293 877.133C939.382 881.806 941.111 907.711 941.111 925.744C941.111 941.558 940.749 967.334 937.064 967.08C934.661 966.915 937.503 937.237 937.064 935.54C936.713 934.183 930.165 926.966 926.935 924.583C925.622 925.727 922.013 927.987 918.472 929.184C913.49 930.868 908.28 930.881 907.842 929.184C907.403 927.488 909.272 927.66 913.49 926.249L913.659 926.193C918.522 924.566 920.718 923.832 923.028 921.523C920.656 920.125 917.187 918.018 912.514 917.434C909.617 917.072 911.657 913.641 916.019 914.514C921.86 915.682 932.596 923.924 936.879 928.045C936.366 922.949 937.109 910.389 935.877 898.16Z" fill="#B5DAE2"/>
<path d="M905.506 841.504C896.16 840.103 888.762 848.903 887.983 854.354C884.284 854.354 869.244 854.824 864.62 862.531C859.364 871.292 857.618 880.206 864.62 887.646C871.623 895.086 892.072 888.425 902.001 883.558C904.532 887.841 904.337 898.16 919.523 898.16C928.868 898.16 938.019 885.894 940.55 880.637C942.886 885.894 947.792 896.407 960.408 896.407C973.024 896.407 975.984 883.168 974.426 876.549C981.824 875.381 1003.63 871.876 991.948 854.354C983.399 841.53 967.417 846.177 957.488 851.434C953.399 847.54 947.325 838 939.382 838C926.532 838 924.585 847.54 924.196 851.434C920.691 848.124 914.851 842.906 905.506 841.504Z" fill="#EFB2C2"/>
<path d="M463.307 120.089C457.232 119.621 456.103 134.106 457.466 141.699C453.961 139.363 445.2 132.354 440.528 137.027C433.519 144.036 445.395 153.381 453.377 158.637C446.368 155.717 431.182 153.624 427.094 158.053C420.83 164.839 443.059 168.177 453.377 167.983C450.068 168.956 438.756 173.801 434.687 177.328C425.926 184.921 435.199 187.464 443.448 186.089C453.961 184.337 467.006 180.248 472.652 177.328C472.068 184.337 472.068 205.363 477.324 206.531C485.896 208.436 485.112 186.868 484.333 177.328C487.059 182.584 490.993 189.736 493.094 193.098C496.015 197.77 502.439 201.859 505.36 198.354C508.595 194.472 499.908 177.717 494.262 170.903L494.36 170.879C504.131 168.535 524.058 163.752 526.386 156.301C528.723 148.825 512.563 149.098 504.192 151.044C505.36 149.682 508.397 145.905 511.201 141.699C514.705 136.443 512.369 132.354 508.864 134.106C505.103 135.987 493.484 144.425 489.006 149.292C493.094 140.531 499.088 116 489.006 116C481.997 116 477.519 135.664 476.156 145.204C473.625 136.832 470.315 120.628 463.307 120.089Z" fill="#F5CF88"/>
<path fill-rule="evenodd" clip-rule="evenodd" d="M475.211 178.937C477.746 172.246 479.315 168.104 478.492 167.399C474.404 163.894 467.746 183.285 466.227 187.841C462.812 198.084 460.108 211.077 458.564 219.357C458.436 218.498 458.081 216.86 457.135 215.293C453.961 210.036 439.36 197.77 435.271 200.691C431.182 203.611 431.468 212.074 438.191 218.797C444.032 224.638 455.13 225.806 455.13 225.806L457.135 227.558C457.135 227.558 454.907 242.727 454.545 245.08C453.377 252.673 455.714 260.266 458.634 260.85C460.86 261.296 460.371 259.705 459.496 256.854C459.223 255.965 458.912 254.953 458.634 253.841C457.466 249.169 459.833 234.41 462.722 219.965C466.14 202.879 471.636 188.373 475.211 178.937ZM442.864 215.293C439.36 211.788 437.724 206.882 438.191 205.947C438.775 204.779 449.873 212.372 451.625 216.461C453.377 220.549 453.377 221.133 452.209 220.549C452.031 220.46 451.708 220.341 451.278 220.183C449.453 219.511 445.7 218.128 442.864 215.293Z" fill="#C4C4C4"/>
<path d="M949.557 325.214C940.212 327.291 942.548 345.267 944.3 353.834C939.433 349.356 929.465 340.517 923.858 345.657C916.265 352.617 928.92 366.099 935.539 372.524C929.309 372.33 914.513 369.02 912.176 378.949C909.84 388.878 931.256 387.905 944.3 386.542C929.114 397.639 927.12 407.094 930.283 409.905C935.539 414.577 949.362 397.445 954.23 390.63C953.451 403.091 947.221 426.843 954.23 428.011C962.478 429.386 963.575 406.984 960.654 390.63C966.69 397.25 978.345 413.346 982.849 411.657C992.194 408.153 975.84 391.604 970 386.542C980.123 386.931 998.619 388.878 1001.54 381.285C1004.75 372.946 988.69 371.356 981.681 369.604C987.605 368.123 1010.95 358.803 1001.54 350.329C997.58 346.765 982.07 353.25 977.593 355.586C978.371 350.135 984.017 338.064 977.593 336.896C971.168 335.728 966.3 345.073 963.575 350.329C960.849 340.205 960.07 322.878 949.557 325.214Z" fill="#F5CF88"/>
<path fill-rule="evenodd" clip-rule="evenodd" d="M959.33 399.213C957.658 392.255 956.624 387.948 957.529 387.352C962.027 384.391 967.238 404.865 968.17 409.577C970.266 420.169 971.968 433.524 971.968 441.488C972.204 440.652 973.459 438.464 974.595 437.028C978.406 432.213 992.278 420.09 997.958 425.347C1001.65 428.759 997.958 437.557 990.365 441.488C977.872 452.798 973.342 448.239 973.342 448.239L971.675 449.878C971.675 449.878 971.091 460.391 969.923 469.736C968.754 479.081 966.971 489.779 964.666 489.011C962.914 488.427 964.666 474.409 964.666 474.409C964.666 474.409 967.591 456.182 966.546 441.488C965.31 424.107 961.687 409.024 959.33 399.213ZM986.277 438.196C990.195 435.162 993.631 430.421 993.286 429.435C992.853 428.203 980.25 435.575 977.997 439.41C975.743 443.245 975.669 443.825 976.902 443.392C977.09 443.327 977.425 443.249 977.872 443.146C979.766 442.71 983.106 440.652 986.277 438.196Z" fill="#CBC4C4"/>
<path d="M839.279 48.0065C829.395 53.8472 830.908 65.7234 833.439 74.2898C828.961 74.2898 815.606 76.3932 814.164 88.8916C812.412 104.078 825.067 106.998 833.439 108.75C833.439 111.671 827.055 123.598 845.704 129.193C855.049 131.996 868.873 119.653 871.988 114.007C875.687 114.396 886.395 118.607 893.598 111.671C909.368 96.4846 900.997 82.4668 896.519 74.2898C899.439 70.7853 905.864 49.1039 889.51 42.1658C876.583 36.6816 865.368 51.9003 860.89 59.688C860.501 54.4313 851.672 40.6837 839.279 48.0065Z" fill="#FABBA9"/>
<path fill-rule="evenodd" clip-rule="evenodd" d="M877.828 132.697C875.492 116.927 867.315 100.573 864.395 100.573C863.237 100.573 863.915 102.225 865.301 105.602C867.41 110.744 871.161 119.884 872.572 133.281C874.259 149.314 873.648 156.163 873.028 163.116V163.116C872.862 164.98 872.695 166.852 872.572 168.91C872.182 167.742 870.586 165.756 867.315 162.485C863.226 158.396 847.345 145.574 839.279 156.06C833.439 163.653 845.12 177.671 853.881 180.591C860.89 182.927 872.377 179.423 874.908 176.503C876.66 177.281 882.413 177.691 892.43 170.078C907.032 158.98 910.019 150.264 902.943 145.547C897.687 142.042 882.501 156.839 878.412 163.653C878.412 162.746 878.494 161.466 878.597 159.857C878.959 154.211 879.579 144.515 877.828 132.697ZM887.012 160.233L887.012 160.233C883.563 163.492 878.412 168.36 878.412 171.246C878.412 174.75 898.855 160.149 900.607 153.724C902.359 147.299 891.846 155.476 888.926 158.396C888.411 158.911 887.75 159.535 887.012 160.233ZM870.235 174.166C868.678 169.883 862.642 161.901 855.049 158.98C847.456 156.06 842.784 157.228 843.368 162.485C843.64 164.933 847.533 170.939 852.713 173.582C858.812 176.695 864.395 176.503 870.235 174.166Z" fill="#B2A8A7"/>
<path d="M125.12 634.228C135.634 634.228 134.834 641.05 137.97 649.414C141.545 646.718 154.37 640.302 163.046 649.414C173.588 660.484 168.676 667.505 163.046 673.945C164.804 676.276 174.569 689.933 163.046 705.628C157.272 713.492 138.804 711.959 132.917 709.326C130.198 711.864 124.183 721.673 114.255 720.471C92.521 717.839 97.8481 702.444 96.5007 693.219C92.0591 692.179 73.0177 678.817 81.8989 663.431C88.919 651.27 100.813 655.75 109.076 659.273C106.223 654.841 110.726 634.228 125.12 634.228Z" fill="#FABBA9"/>
<path fill-rule="evenodd" clip-rule="evenodd" d="M139.059 727.766C131.43 713.767 128.113 695.786 130.445 694.028C131.37 693.331 131.823 695.058 132.749 698.589C134.16 703.965 136.668 713.521 143.607 725.067C151.912 738.885 156.523 743.986 161.205 749.165L161.205 749.165C162.46 750.553 163.72 751.947 165.057 753.516C164.665 752.349 164.744 749.802 165.386 745.221C165.458 744.713 165.53 744.106 165.612 743.423L165.612 743.423C166.453 736.405 168.262 721.306 179.439 721.839C189.008 722.294 188.784 737.025 185.28 747.538C182.944 754.547 171.542 761.793 167.763 760.985C166.833 762.662 159.395 771.485 148.483 771.485C132.129 771.485 128.735 763.157 131.545 755.131C133.633 749.168 149.862 749.855 157.229 752.835C156.683 752.111 155.847 751.138 154.796 749.915C151.108 745.624 144.775 738.256 139.059 727.766ZM146.147 756.299C146.703 756.331 147.388 756.356 148.155 756.385L148.155 756.385C152.281 756.537 158.763 756.777 160.165 758.635C161.827 760.839 141.716 768.934 139.722 763.308C137.729 757.682 142.598 756.094 146.147 756.299ZM170.094 756.315C168.814 752.06 168.28 741.353 172.564 734.564C176.548 728.25 177.047 728.736 179.468 731.086C179.651 731.263 179.845 731.451 180.052 731.648C181.79 733.299 183.104 736.725 181.775 742.281C179.996 749.727 176.444 752.829 170.094 756.315Z" fill="#B2A8A7"/>
<path d="M185.032 372.775C188.266 374.391 191.633 376.143 193.115 379.51C198.054 390.736 196.483 401.064 204.565 412.514C212.648 423.965 220.731 423.291 228.813 422.618C236.896 421.944 240.937 407.126 241.611 392.981C242.284 378.837 239.59 375.469 246.326 366.713C253.061 357.957 252.388 348.527 241.611 346.506C232.989 344.89 226.119 354.365 224.098 359.304C220.057 351.221 215.342 343.812 205.913 345.159C199.669 346.051 199.402 354.814 200.524 357.957C198.503 356.61 194.193 354.454 187.727 356.61C179.644 359.304 178.97 369.744 185.032 372.775Z" fill="#C2A8C1"/>
<path fill-rule="evenodd" clip-rule="evenodd" d="M225.683 464.507C224.527 461.252 223.595 458.347 222.917 455.806C220.223 445.702 214.642 417.413 216.182 406.636C217.529 397.207 219.549 398.554 220.897 410.004C222.244 421.455 224.938 440.988 227.632 451.091C229.787 459.173 230.775 460.296 231 459.847C232.571 454.234 240.208 444.648 246.901 446.192C255.657 448.213 252.699 458.132 246.227 463.031C241.779 466.399 236.164 468.603 234.368 469.277C235.419 472.512 238.374 479.642 241.558 487.325L241.559 487.326L241.559 487.326C246.905 500.224 252.897 514.681 251.616 514.894C247.575 515.568 242.45 505.649 236.124 490.647C233.086 483.443 230.418 476.987 228.226 471.328C227.646 472.083 226.916 472.912 226.021 473.808C218.612 481.217 205.141 481.89 203.12 477.176C201.1 472.461 206.488 465.052 213.897 463.705C219.152 462.749 223.032 463.506 225.683 464.507ZM242.86 450.907C239.928 452.373 234.104 461.684 234.777 463.704C235.451 465.725 243.399 458.99 245.554 456.295C248.248 452.928 246.901 448.886 242.86 450.907ZM223.327 469.093C223.327 467.746 213.897 467.072 210.529 469.093C205.628 472.033 206.488 476.502 211.203 475.828C214.975 475.29 223.327 470.44 223.327 469.093Z" fill="#B9C9BF"/>
<path d="M852.568 573.085C850.46 575.404 847.157 577.589 846.357 580.678C843.692 590.974 846.738 596.556 839.724 608.184C832.71 619.811 822.783 622.767 815.772 623.315C808.76 623.864 792.437 607.877 789.892 595.864C787.347 583.851 783.571 574.47 778.391 568.997C773.211 563.523 770.214 554.395 781.311 549.906C792.516 545.374 799.921 556.873 802.338 560.819C804.672 553.339 811.999 549.906 820.259 549.906C828.037 549.906 830.897 559.141 830.374 561.988C831.916 560.553 838.55 553.227 846.357 554.395C858.276 556.178 858.409 566.66 852.568 573.085Z" fill="#C2A8C1"/>
<path fill-rule="evenodd" clip-rule="evenodd" d="M817.917 650.125C818.178 647.282 818.414 644.765 818.692 642.662C819.86 633.829 819.86 624.484 818.692 613.97C817.78 605.761 812.772 602.222 812.952 612.218C813.379 635.943 812.518 647.371 812.311 650.122L812.311 650.122L812.311 650.123C812.283 650.487 812.267 650.699 812.267 650.767C808.419 647.489 796.872 644.114 792.804 648.465C787.483 654.157 794.413 659.862 801.44 660.254C805.087 660.457 807.67 659.494 809.414 658.844C809.98 658.632 810.458 658.454 810.855 658.36C810.855 671.243 808.878 681.136 807.477 688.146C806.401 693.531 805.665 697.215 806.426 699.245C808.179 703.918 811.917 688.732 814.604 675.298C815.913 668.75 816.691 662.54 817.255 657.062C818.225 657.497 819.53 657.9 821.195 658.226C830.112 659.97 840.13 653.933 839.302 649.563C838.473 645.192 831.01 642.47 825.027 645.088C821.633 646.573 819.402 648.42 817.917 650.125ZM797.994 649.901C800.813 649.536 809.511 653.416 810.005 655.195C810.498 656.975 801.519 655.977 798.664 655.082C795.096 653.963 794.109 650.403 797.994 649.901ZM820.851 653.529C820.199 652.56 826.657 647.511 830.058 647.334C835.008 647.077 836.553 650.708 832.834 652.506C829.86 653.944 821.503 654.498 820.851 653.529Z" fill="#B9C9BF"/>
<path d="M642.749 315.457C637.687 312.342 630.95 303.075 635.156 295.598C640.412 286.253 663.191 275.156 664.359 287.421C665.027 294.43 663.581 303.386 663.191 306.112C667.864 299.492 681.531 287.889 689.475 292.094C699.404 297.351 700.623 309.599 698.82 314.289C695.899 321.882 678.183 318.961 669.032 319.545C677.209 327.333 691.811 341.74 685.386 354.59C680.735 363.891 666.524 360.843 660.271 354.59C654.287 348.606 654.882 342.621 655.943 339.941C654.028 344.072 649.459 350.402 642.749 348.165C633.988 345.245 621.722 325.386 625.811 319.545C630.551 312.773 639.439 314.289 642.749 315.457Z" fill="#F9A092"/>
<path fill-rule="evenodd" clip-rule="evenodd" d="M657.935 397.227C656.767 393.333 655.058 381.324 654.43 369.192C652.678 335.316 657.935 318.634 657.935 327.138V327.139C657.935 336.484 657.935 373.864 659.687 384.962C660.172 388.031 660.912 391.967 661.528 395.242C662.07 398.125 662.516 400.496 662.607 401.316C664.165 397.617 668.098 390.919 671.368 391.387C674.639 391.854 675.068 394.502 674.873 396.059C679.935 394.502 689.475 395.125 687.138 403.068C684.218 412.997 674.289 413.581 671.368 413.581C667.515 413.581 667.475 410.466 667.864 409.493C666.501 409.493 664.009 409.142 664.944 407.741C665.136 407.452 665.502 406.943 665.969 406.293L665.969 406.292C668.342 402.99 673.32 396.059 671.368 396.059C669.032 396.059 664.944 404.82 664.36 407.157C664.053 408.381 663.642 408.96 663.206 409.572C662.811 410.127 662.396 410.71 662.023 411.829C661.657 412.927 660.572 413.053 659.544 413.171C658.932 413.242 658.341 413.311 657.935 413.581C655.309 415.332 654.191 415.049 652.42 414.601C651.827 414.451 651.161 414.283 650.342 414.165C646.253 413.581 637.492 407.741 640.997 403.068C642.947 400.467 645.793 401.835 647.938 402.866C649.657 403.692 650.926 404.302 650.926 402.484C650.926 398.395 657.935 397.227 657.935 397.227ZM671.952 408.104C671.952 406.353 673.935 402.434 676.623 400.514C680.709 397.595 684.436 402.041 681.293 405.185C677.79 408.688 672.536 409.856 671.952 408.104ZM645.669 405.404C647.89 405.404 649.759 407.516 651.276 409.229C651.355 409.318 651.433 409.406 651.51 409.493C650.926 409.688 649.29 409.843 647.421 408.909C645.085 407.741 644.017 405.404 645.669 405.404ZM656.766 407.741C655.598 407.157 653.846 401.9 655.598 401.316C657.351 400.732 657.351 404.236 657.351 404.236C657.351 404.236 657.935 408.325 656.766 407.741Z" fill="#BACAC0"/>
<path d="M423.786 546.092C431.985 557.443 453.379 566.145 463.503 568.287C489.203 564.198 509.645 540.835 507.893 534.41C505.28 524.831 495.822 526.623 487.45 528.57C489.008 524.481 490.721 515.136 485.114 512.8C479.507 510.463 471.486 518.64 468.176 522.729C467.787 517.277 464.788 506.725 455.91 508.127C447.032 509.529 444.813 522.339 444.813 528.57C440.335 525.844 429.627 520.86 422.618 522.729C413.857 525.065 416.193 535.578 423.786 546.092Z" fill="#E9D4DD"/>
<path d="M462.204 562.129C461.036 567.969 461.036 582.571 462.788 598.925C464.54 615.279 469.329 630.582 472.133 631.049C475.637 631.634 473.301 623.456 470.965 614.111C468.356 603.676 465.708 581.987 465.708 569.138C465.708 556.288 463.437 555.96 462.204 562.129Z" fill="#B6DBE4"/>
<path d="M243.4 935.023C253.72 945.543 273.51 954.291 283.687 956.165C309.27 951.402 331.986 926.269 330.234 914.003C328.829 904.174 313.88 900.57 307.455 910.499C308.904 906.371 310.375 896.598 301.03 894.729C291.685 892.86 289.045 903.404 285.844 907.578C285.311 902.139 280.08 889.005 271.242 890.64C262.404 892.275 264.069 907.775 264.233 914.003C259.685 911.396 251.968 902.906 243.4 907.578C232.109 913.736 234.318 925.765 243.4 935.023Z" fill="#E9D4DD"/>
<path d="M282.226 950.044C281.212 955.913 281.596 970.51 283.778 986.812C285.96 1003.11 291.15 1018.29 293.965 1018.68C297.483 1019.17 294.933 1011.06 292.352 1001.78C289.469 991.414 286.252 969.803 285.913 956.958C285.575 944.113 283.297 943.845 282.226 950.044Z" fill="#B6DBE4"/>
<path d="M553.279 770.264C544.868 778.675 553.863 792.459 560.872 796.547C551.332 793.432 531.615 794.211 530.5 806.477C528.748 825.751 537.509 830.424 546.27 829.84C553.279 829.372 561.456 823.22 562.624 820.494C559.37 828.087 558.91 839.047 562.624 842.105C572.553 850.282 587.155 843.273 592.996 836.264C597.668 830.657 592.412 823.415 584.235 809.397C585.208 809.786 587.378 812.904 592.996 816.99C599.42 821.663 610.518 824.583 616.359 815.822C624.657 803.375 615.775 771.432 605.845 771.432C597.902 771.432 589.102 783.892 587.155 788.954C587.739 786.813 588.557 779.843 587.155 769.096C585.86 759.167 563.792 759.751 553.279 770.264Z" fill="#F9A092"/>
<path fill-rule="evenodd" clip-rule="evenodd" d="M560.872 822.247C557.367 829.84 545.686 859.043 544.517 868.973C543.349 866.636 540.137 861.38 537.509 863.132C534.004 865.468 534.004 871.893 535.172 874.229C531.668 872.477 523.491 871.893 525.243 878.318C526.413 882.609 533.923 885.327 539.261 885.327C541.013 885.327 542.765 885.327 545.686 884.743C546.659 886.495 552.694 890.116 559.703 888.247C568.464 885.911 570.801 881.822 566.712 879.486C562.972 877.349 560.287 877.15 559.703 877.15C563.013 873.645 565.544 867.22 560.287 866.052C556.199 865.144 550.942 870.919 549.774 874.229C549.774 864.385 555.726 847.965 558.583 840.084C558.777 839.549 558.957 839.053 559.119 838.601C561.608 831.689 564.489 825.562 566.709 820.84C569.179 815.587 570.832 812.072 570.217 811.149C569.18 809.594 564.376 814.654 560.872 822.247ZM542.765 877.734C541.597 877.734 536.24 869.607 538.677 868.388C541.013 867.22 543.349 877.734 542.765 877.734ZM551.526 879.486C552.11 875.982 556.783 867.804 559.703 868.973C562.865 870.238 552.695 880.07 551.526 879.486ZM551.526 884.159C550.942 882.99 560.872 878.435 563.208 881.238C565.544 884.042 552.695 884.743 551.526 884.159ZM538.093 881.238C538.093 879.486 531.084 874.229 529.916 876.566C528.697 879.002 537.509 881.822 538.093 881.238Z" fill="#BACAC0"/>
</g>
<defs>
<clipPath id="clip0_1_2">
<rect width="1080" height="1080" fill="white"/>
</clipPath>
</defs>
</svg>
